<svg width="130" height="69" viewBox="0 0 130 69" fill="none" xmlns="http://www.w3.org/2000/svg">
<mask id="path-1-outside-1_11_52" maskUnits="userSpaceOnUse" x="0" y="0" width="130" height="69" fill="black">
<rect fill="white" width="130" height="69"/>
<path d="M1 41.2931H7.40733V32.5974H14.0435V27.3342H7.40733V23.9017H14.73V18.4097H1V41.2931Z"/>
<path d="M17.4676 41.2931H23.1884V17.2655H17.4676V41.2931Z"/>
<path d="M38.5238 27.4323C37.1181 25.6343 35.549 24.9151 33.3587 24.9151C28.1283 24.9151 26.0034 29.3937 26.0034 33.382C26.0034 38.7105 29.3378 41.8815 33.3587 41.8815C35.6798 41.8815 37.4123 40.8681 38.5238 39.4297V41.2931H44.0158V25.5035H38.5238V27.4323ZM35.3202 37.1741C32.9665 37.1741 31.9204 35.278 31.9204 33.382C31.9204 31.5513 32.9338 29.6226 35.3202 29.6226C37.347 29.6226 38.7527 31.0936 38.7527 33.382C38.7527 35.703 37.347 37.1741 35.3202 37.1741Z"/>
<path d="M47.668 41.2931H53.3888V34.5588C53.3888 34.0358 53.4542 30.0475 57.6386 30.0475C58.1943 30.0475 58.5866 30.0802 59.1097 30.3091V25.2747C58.9135 25.242 58.0636 25.144 57.6386 25.144C56.6906 25.144 54.9906 25.4709 53.6503 26.9419C53.4869 27.1381 53.3234 27.3342 53.16 27.5631V25.5035H47.668V41.2931Z"/>
<path d="M72.0906 36.4876C71.7964 37.7625 70.6522 38.449 69.0831 38.449C66.7947 38.449 65.6179 36.651 65.6833 34.6569H77.7134C77.8441 31.1263 76.5365 24.9151 69.0177 24.9151C63.6238 24.9151 60.322 28.3803 60.322 33.382C60.322 38.9067 64.1795 41.8815 69.0831 41.8815C70.4561 41.8815 75.752 41.8815 77.5826 36.4876H72.0906ZM65.814 31.5513C65.9121 29.8514 67.0889 28.3476 69.0177 28.3476C71.0772 28.3476 72.1233 29.9168 72.2214 31.5513H65.814Z"/>
<path d="M107.436 41.2931H113.614V27.5631L122.081 41.2931H128.717V18.4097H122.539V31.9109L114.17 18.4097H107.436V41.2931Z"/>
<path fill-rule="evenodd" clip-rule="evenodd" d="M90.5371 41.8091C98.9058 41.8091 104.317 35.3106 104.317 29.1975C101.957 15.1721 101.234 9.44365 101.908 6.21153C102.582 2.9794 95.4327 12.6865 95.4327 12.6865L92.0252 1C92.0447 6.42039 91.305 8.16405 89.2737 12.6865C86.7378 12.1667 83.2725 6.21153 82.9567 9.84381C82.6408 13.4761 82.2165 19.4206 79.7335 29.1975C79.7335 35.3106 82.1683 41.8091 90.5371 41.8091ZM86.337 29.1975C86.337 33.6107 89.0503 35.801 92.0252 35.801C95 35.801 97.7133 33.6107 97.7133 29.1975C97.7133 24.7843 95 22.594 92.0252 22.594C89.0503 22.594 86.337 24.7843 86.337 29.1975Z"/>
<path d="M90.5371 41.8091C65.5401 49.5685 76.0178 41.2743 39.4058 47.0973C30.4323 48.3273 24.0737 47.8481 20.7707 46.1498C17.4676 44.4515 23.2628 51.4263 33.8321 54.0126C14.8751 52.3604 7.32666 46.4741 13.2419 50.9688C19.1572 55.4635 17.0932 58.7181 34.6534 57.9942H35.9315C35.5003 57.9961 35.0744 57.9962 34.6534 57.9942C34.6534 57.9942 9.45472 61.8656 17.9827 62.8132C26.5106 63.7607 37.0357 67.0772 45.0911 67.7855C70.7333 67.7855 85.9589 57.1615 90.5371 41.8091Z"/>
</mask>
<path d="M1 41.2931H7.40733V32.5974H14.0435V27.3342H7.40733V23.9017H14.73V18.4097H1V41.2931Z" fill="#2E2E31"/>
<path d="M17.4676 41.2931H23.1884V17.2655H17.4676V41.2931Z" fill="#2E2E31"/>
<path d="M38.5238 27.4323C37.1181 25.6343 35.549 24.9151 33.3587 24.9151C28.1283 24.9151 26.0034 29.3937 26.0034 33.382C26.0034 38.7105 29.3378 41.8815 33.3587 41.8815C35.6798 41.8815 37.4123 40.8681 38.5238 39.4297V41.2931H44.0158V25.5035H38.5238V27.4323ZM35.3202 37.1741C32.9665 37.1741 31.9204 35.278 31.9204 33.382C31.9204 31.5513 32.9338 29.6226 35.3202 29.6226C37.347 29.6226 38.7527 31.0936 38.7527 33.382C38.7527 35.703 37.347 37.1741 35.3202 37.1741Z" fill="#2E2E31"/>
<path d="M47.668 41.2931H53.3888V34.5588C53.3888 34.0358 53.4542 30.0475 57.6386 30.0475C58.1943 30.0475 58.5866 30.0802 59.1097 30.3091V25.2747C58.9135 25.242 58.0636 25.144 57.6386 25.144C56.6906 25.144 54.9906 25.4709 53.6503 26.9419C53.4869 27.1381 53.3234 27.3342 53.16 27.5631V25.5035H47.668V41.2931Z" fill="#2E2E31"/>
<path d="M72.0906 36.4876C71.7964 37.7625 70.6522 38.449 69.0831 38.449C66.7947 38.449 65.6179 36.651 65.6833 34.6569H77.7134C77.8441 31.1263 76.5365 24.9151 69.0177 24.9151C63.6238 24.9151 60.322 28.3803 60.322 33.382C60.322 38.9067 64.1795 41.8815 69.0831 41.8815C70.4561 41.8815 75.752 41.8815 77.5826 36.4876H72.0906ZM65.814 31.5513C65.9121 29.8514 67.0889 28.3476 69.0177 28.3476C71.0772 28.3476 72.1233 29.9168 72.2214 31.5513H65.814Z" fill="#2E2E31"/>
<path d="M107.436 41.2931H113.614V27.5631L122.081 41.2931H128.717V18.4097H122.539V31.9109L114.17 18.4097H107.436V41.2931Z" fill="#2E2E31"/>
<path fill-rule="evenodd" clip-rule="evenodd" d="M90.5371 41.8091C98.9058 41.8091 104.317 35.3106 104.317 29.1975C101.957 15.1721 101.234 9.44365 101.908 6.21153C102.582 2.9794 95.4327 12.6865 95.4327 12.6865L92.0252 1C92.0447 6.42039 91.305 8.16405 89.2737 12.6865C86.7378 12.1667 83.2725 6.21153 82.9567 9.84381C82.6408 13.4761 82.2165 19.4206 79.7335 29.1975C79.7335 35.3106 82.1683 41.8091 90.5371 41.8091ZM86.337 29.1975C86.337 33.6107 89.0503 35.801 92.0252 35.801C95 35.801 97.7133 33.6107 97.7133 29.1975C97.7133 24.7843 95 22.594 92.0252 22.594C89.0503 22.594 86.337 24.7843 86.337 29.1975Z" fill="#2E2E31"/>
<path d="M90.5371 41.8091C65.5401 49.5685 76.0178 41.2743 39.4058 47.0973C30.4323 48.3273 24.0737 47.8481 20.7707 46.1498C17.4676 44.4515 23.2628 51.4263 33.8321 54.0126C14.8751 52.3604 7.32666 46.4741 13.2419 50.9688C19.1572 55.4635 17.0932 58.7181 34.6534 57.9942H35.9315C35.5003 57.9961 35.0744 57.9962 34.6534 57.9942C34.6534 57.9942 9.45472 61.8656 17.9827 62.8132C26.5106 63.7607 37.0357 67.0772 45.0911 67.7855C70.7333 67.7855 85.9589 57.1615 90.5371 41.8091Z" fill="#E76F1A"/>
<path d="M90.6884 41.8543C90.6996 41.8167 90.7064 41.7942 90.7101 41.7827C90.711 41.7798 90.7115 41.778 90.7118 41.777C90.712 41.7766 90.712 41.7765 90.7119 41.7768C90.7119 41.7769 90.7114 41.7784 90.7106 41.7805C90.7102 41.7816 90.7093 41.7839 90.708 41.7868C90.7073 41.7883 90.7063 41.7907 90.7048 41.7935C90.7036 41.796 90.701 41.8011 90.697 41.8074C90.6951 41.8104 90.6902 41.8174 90.6872 41.8213C90.6827 41.8268 90.6702 41.8396 90.6619 41.8466C90.6476 41.8568 90.6054 41.8754 90.5772 41.8805C90.5382 41.879 90.4705 41.8507 90.4448 41.8272C90.4311 41.8092 90.4149 41.7766 90.4109 41.7636C90.4089 41.7551 90.4066 41.7407 90.406 41.7348C90.4058 41.7307 90.4056 41.7233 90.4056 41.7202C90.4057 41.7178 90.4059 41.7135 90.406 41.7116C90.4063 41.7074 90.4068 41.704 90.407 41.7021C90.4073 41.6999 90.4076 41.6982 90.4078 41.697C90.4082 41.6947 90.4086 41.6929 90.4088 41.692C90.4091 41.6902 90.4094 41.689 90.4094 41.6889C90.4095 41.6886 90.4094 41.6891 90.409 41.6908C90.4086 41.6923 90.408 41.6943 90.4073 41.6968C90.406 41.7019 90.4042 41.7084 90.4021 41.716C90.3979 41.7311 90.3926 41.7499 90.3872 41.7687C90.3818 41.7875 90.3764 41.8061 90.3721 41.821C90.3699 41.8285 90.368 41.8348 90.3665 41.8397C90.3658 41.8421 90.3652 41.844 90.3648 41.8454C90.3643 41.847 90.3642 41.8472 90.3644 41.8465C90.3645 41.8464 90.365 41.8447 90.3659 41.8424C90.3663 41.8413 90.3673 41.8388 90.3687 41.8355C90.3694 41.8339 90.3706 41.8312 90.3723 41.8279C90.373 41.8265 90.3747 41.8233 90.3757 41.8215C90.377 41.8193 90.3801 41.8142 90.3819 41.8114C90.3845 41.8077 90.3912 41.7989 90.3954 41.7939C90.4022 41.7868 90.4218 41.7703 90.4351 41.7618C90.4588 41.7508 90.5221 41.7414 90.5596 41.7481C90.5937 41.7632 90.6399 41.8047 90.6533 41.826C90.6596 41.8397 90.667 41.8631 90.6689 41.8724C90.6698 41.8786 90.6709 41.8893 90.6711 41.8937C90.6712 41.897 90.6711 41.9028 90.671 41.9053C90.6709 41.9072 90.6707 41.9108 90.6706 41.9124C90.6703 41.916 90.6699 41.9188 90.6697 41.9206C90.6694 41.9224 90.6692 41.924 90.669 41.9251C90.6686 41.9271 90.6683 41.9287 90.6681 41.9295C90.668 41.9304 90.6678 41.9311 90.6677 41.9314C90.6676 41.9318 90.6676 41.932 90.6676 41.9321C90.6675 41.9322 90.6676 41.932 90.6677 41.9314C90.6681 41.9302 90.6686 41.9281 90.6694 41.9251C90.6726 41.9127 90.6788 41.8894 90.6894 41.8508L90.3848 41.7674C90.3742 41.806 90.3674 41.8312 90.3636 41.8457C90.3627 41.8494 90.3618 41.8527 90.3611 41.8557C90.3608 41.8571 90.3604 41.8587 90.36 41.8603C90.3597 41.8617 90.3592 41.8639 90.3587 41.8664C90.3584 41.8676 90.358 41.8696 90.3576 41.872C90.3574 41.8732 90.3571 41.8749 90.3568 41.8769C90.3566 41.8788 90.3562 41.8817 90.3559 41.8854C90.3558 41.887 90.3555 41.8906 90.3554 41.8926C90.3554 41.8952 90.3553 41.901 90.3554 41.9043C90.3556 41.9088 90.3566 41.9195 90.3576 41.9257C90.3595 41.935 90.3669 41.9584 90.3732 41.9721C90.3866 41.9934 90.4328 42.035 90.4669 42.05C90.5044 42.0567 90.5677 42.0473 90.5914 42.0363C90.6048 42.0278 90.6244 42.0113 90.6311 42.0042C90.6354 41.9992 90.6421 41.9904 90.6447 41.9866C90.6466 41.9838 90.6497 41.9787 90.6509 41.9764C90.6519 41.9746 90.6537 41.9714 90.6544 41.9699C90.6561 41.9666 90.6574 41.9638 90.6581 41.9621C90.6596 41.9586 90.6607 41.9558 90.6612 41.9544C90.6624 41.9514 90.6632 41.9488 90.6637 41.9475C90.6647 41.9447 90.6656 41.9417 90.6663 41.9394C90.6671 41.9368 90.668 41.9339 90.6689 41.931C90.6707 41.925 90.6728 41.9178 90.6751 41.9099C90.6798 41.8941 90.6854 41.8748 90.6909 41.8555C90.6964 41.8362 90.7019 41.8167 90.7064 41.8007C90.7086 41.7927 90.7106 41.7853 90.7123 41.7792C90.7131 41.7761 90.7139 41.7732 90.7146 41.7706C90.7152 41.7681 90.716 41.7652 90.7166 41.7624C90.7169 41.761 90.7175 41.7588 90.718 41.7562C90.7183 41.7549 90.7187 41.7528 90.7192 41.7502C90.7194 41.7489 90.7197 41.747 90.72 41.7448C90.7203 41.7427 90.7207 41.7392 90.721 41.7349C90.7212 41.733 90.7214 41.7287 90.7214 41.7262C90.7215 41.7231 90.7213 41.7157 90.721 41.7115C90.7205 41.7057 90.7182 41.6912 90.7162 41.6827C90.7121 41.6696 90.696 41.6371 90.6823 41.619C90.6565 41.5955 90.5888 41.5672 90.5498 41.5658C90.5216 41.5709 90.4794 41.5895 90.465 41.5997C90.4568 41.6067 90.4443 41.6195 90.4398 41.625C90.4367 41.6289 90.4318 41.6359 90.4299 41.639C90.4259 41.6453 90.4232 41.6505 90.4219 41.6531C90.4205 41.656 90.4194 41.6585 90.4187 41.6601C90.4173 41.6632 90.4163 41.6658 90.4157 41.6672C90.4146 41.6701 90.4137 41.6726 90.4133 41.674C90.4127 41.6756 90.4122 41.6772 90.4117 41.6786C90.4108 41.6814 90.4098 41.6847 90.4087 41.6882C90.4043 41.7021 90.3969 41.7264 90.3857 41.764L90.6884 41.8543ZM90.4901 41.6584C90.4791 41.6618 90.4722 41.6639 90.4684 41.6651C90.4666 41.6657 90.4652 41.6661 90.4644 41.6664C90.4644 41.6664 90.4637 41.6666 90.4631 41.6668C90.4629 41.6669 90.4624 41.667 90.4617 41.6672C90.4614 41.6674 90.4604 41.6677 90.4599 41.6679C90.4588 41.6683 90.4549 41.6697 90.4522 41.6708C90.431 41.6813 90.3676 41.8816 90.5363 41.9731C90.5428 41.9719 90.551 41.97 90.5527 41.9696C90.5535 41.9693 90.5548 41.969 90.5552 41.9689C90.5555 41.9688 90.5561 41.9686 90.5563 41.9686C90.557 41.9683 90.5576 41.9682 90.5577 41.9681C90.5579 41.9681 90.5581 41.968 90.5582 41.968C90.5584 41.9679 90.5587 41.9678 90.5589 41.9678C90.5618 41.9669 90.5729 41.9634 90.5837 41.9601C90.5944 41.9567 90.6056 41.9532 90.6086 41.9523C90.6088 41.9522 90.6091 41.9522 90.6093 41.9521C90.6093 41.9521 90.61 41.9519 90.6108 41.9516C90.6109 41.9516 90.6116 41.9513 90.6125 41.951C90.613 41.9509 90.6145 41.9504 90.6154 41.95C90.6176 41.9492 90.6306 41.9436 90.6411 41.9381C90.7124 41.7531 90.5363 41.6456 90.5259 41.6477C90.5238 41.6482 90.5207 41.649 90.5198 41.6492C90.5184 41.6496 90.5174 41.6499 90.5173 41.65C90.5166 41.6501 90.5162 41.6503 90.5161 41.6503C90.5158 41.6504 90.5157 41.6504 90.5155 41.6505C90.5148 41.6507 90.5134 41.6511 90.5117 41.6517C90.5079 41.6528 90.5011 41.6549 90.4903 41.6583L90.5839 41.96C90.5947 41.9566 90.6014 41.9545 90.6051 41.9534C90.606 41.9531 90.6067 41.9529 90.6072 41.9527C90.6074 41.9527 90.6076 41.9526 90.6078 41.9526C90.6079 41.9525 90.608 41.9525 90.6079 41.9525C90.6079 41.9525 90.6078 41.9525 90.6077 41.9526C90.6077 41.9526 90.6073 41.9527 90.6067 41.9529C90.6066 41.9529 90.6055 41.9532 90.6042 41.9536C90.6033 41.9538 90.6002 41.9546 90.5981 41.9552C90.5877 41.9572 90.4116 41.8497 90.4829 41.6647C90.4934 41.6592 90.5064 41.6536 90.5086 41.6528C90.5095 41.6525 90.5109 41.652 90.5115 41.6518C90.5123 41.6515 90.513 41.6513 90.5132 41.6512C90.514 41.6509 90.5147 41.6507 90.514 41.6509C90.5115 41.6517 90.5008 41.6551 90.4898 41.6585C90.4788 41.6619 90.4682 41.6652 90.4658 41.6659C90.4657 41.666 90.4657 41.666 90.4657 41.666C90.4657 41.666 90.4658 41.6659 90.466 41.6659C90.466 41.6659 90.4665 41.6657 90.4672 41.6655C90.4674 41.6655 90.4679 41.6653 90.4682 41.6652C90.4687 41.6651 90.47 41.6647 90.4708 41.6645C90.4725 41.6641 90.4807 41.6622 90.4872 41.661C90.6559 41.7525 90.5924 41.9528 90.5713 41.9633C90.5685 41.9644 90.5647 41.9658 90.5636 41.9662C90.563 41.9664 90.5621 41.9667 90.5617 41.9668C90.5611 41.9671 90.5606 41.9672 90.5604 41.9673C90.5601 41.9674 90.5598 41.9675 90.5597 41.9675C90.5597 41.9675 90.5596 41.9675 90.5596 41.9675C90.5596 41.9675 90.5596 41.9675 90.5596 41.9675C90.5596 41.9675 90.5596 41.9675 90.5596 41.9675C90.5597 41.9675 90.5597 41.9675 90.5598 41.9675C90.56 41.9674 90.5602 41.9674 90.5605 41.9673C90.561 41.9671 90.5617 41.9669 90.5626 41.9666C90.5663 41.9654 90.5731 41.9633 90.5841 41.9599L90.4901 41.6584ZM39.3264 47.2338C44.4874 50.2385 47.0167 52.9331 47.7099 56.0613C48.4051 59.1989 47.2663 62.8208 44.9484 67.718L45.2339 67.8531C47.5504 62.9589 48.7392 59.2467 48.0182 55.993C47.2952 52.73 44.6646 49.9762 39.4853 46.9609L39.3264 47.2338ZM1 41.2931H0.68415V41.6089H1V41.2931ZM7.40733 41.2931V41.6089H7.72318V41.2931H7.40733ZM7.40733 32.5974V32.2815H7.09148V32.5974H7.40733ZM14.0435 32.5974V32.9132H14.3594V32.5974H14.0435ZM14.0435 27.3342H14.3594V27.0184H14.0435V27.3342ZM7.40733 27.3342H7.09148V27.6501H7.40733V27.3342ZM7.40733 23.9017V23.5859H7.09148V23.9017H7.40733ZM14.73 23.9017V24.2176H15.0459V23.9017H14.73ZM14.73 18.4097H15.0459V18.0939H14.73V18.4097ZM1 18.4097V18.0939H0.68415V18.4097H1ZM17.4676 41.2931H17.1517V41.6089H17.4676V41.2931ZM23.1884 41.2931V41.6089H23.5043V41.2931H23.1884ZM23.1884 17.2655H23.5043V16.9497H23.1884V17.2655ZM17.4676 17.2655V16.9497H17.1517V17.2655H17.4676ZM38.5238 27.4323L38.275 27.6268L38.8397 28.3491V27.4323H38.5238ZM38.5238 39.4297H38.8397V38.5044L38.2739 39.2366L38.5238 39.4297ZM38.5238 41.2931H38.208V41.6089H38.5238V41.2931ZM44.0158 41.2931V41.6089H44.3317V41.2931H44.0158ZM44.0158 25.5035H44.3317V25.1877H44.0158V25.5035ZM38.5238 25.5035V25.1877H38.208V25.5035H38.5238ZM47.668 41.2931H47.3521V41.6089H47.668V41.2931ZM53.3888 41.2931V41.6089H53.7047V41.2931H53.3888ZM59.1097 30.3091L58.9831 30.5984L59.4255 30.792V30.3091H59.1097ZM59.1097 25.2747H59.4255V25.0072L59.1616 24.9632L59.1097 25.2747ZM53.6503 26.9419L53.4166 26.729L53.4077 26.7397L53.6503 26.9419ZM53.16 27.5631H52.8441V28.5487L53.417 27.7466L53.16 27.5631ZM53.16 25.5035H53.4758V25.1877H53.16V25.5035ZM47.668 25.5035V25.1877H47.3521V25.5035H47.668ZM72.0906 36.4876V36.1717H71.8393L71.7828 36.4165L72.0906 36.4876ZM65.6833 34.6569V34.341H65.3776L65.3676 34.6465L65.6833 34.6569ZM77.7134 34.6569V34.9727H78.0178L78.029 34.6686L77.7134 34.6569ZM77.5826 36.4876L77.8817 36.5891L78.0234 36.1717H77.5826V36.4876ZM65.814 31.5513L65.4987 31.5331L65.4794 31.8671H65.814V31.5513ZM72.2214 31.5513V31.8671H72.5567L72.5366 31.5324L72.2214 31.5513ZM104.317 29.1975H104.633V29.1711L104.628 29.1451L104.317 29.1975ZM79.7335 29.1975L79.4274 29.1198L79.4177 29.158V29.1975H79.7335ZM107.436 41.2931H107.12V41.6089H107.436V41.2931ZM113.614 41.2931V41.6089H113.93V41.2931H113.614ZM113.614 27.5631L113.883 27.3973L113.298 26.4491V27.5631H113.614ZM122.081 41.2931L121.812 41.4588L121.905 41.6089H122.081V41.2931ZM128.717 41.2931V41.6089H129.033V41.2931H128.717ZM128.717 18.4097H129.033V18.0939H128.717V18.4097ZM122.539 18.4097V18.0939H122.223V18.4097H122.539ZM122.539 31.9109L122.27 32.0773L122.855 33.0199V31.9109H122.539ZM114.17 18.4097L114.438 18.2433L114.346 18.0939H114.17V18.4097ZM107.436 18.4097V18.0939H107.12V18.4097H107.436ZM89.2737 12.6865L89.2103 12.9959L89.4581 13.0467L89.5618 12.8159L89.2737 12.6865ZM92.0252 1L92.3284 0.911585L91.7093 1.00114L92.0252 1ZM95.4327 12.6865L95.1295 12.7749L95.3083 13.388L95.6871 12.8738L95.4327 12.6865ZM39.4058 47.0973L39.4487 47.4103L39.4554 47.4093L39.4058 47.0973ZM33.8321 54.0126L33.8047 54.3272L33.9072 53.7058L33.8321 54.0126ZM35.9315 57.9942L35.9329 58.31L35.9315 57.6783V57.9942ZM45.0911 67.7855L45.0635 68.1002L45.0773 68.1014H45.0911V67.7855ZM34.6534 57.9942V57.678L34.6404 57.6786L34.6534 57.9942ZM1 41.6089H7.40733V40.9772H1V41.6089ZM7.72318 41.2931V32.5974H7.09148V41.2931H7.72318ZM7.40733 32.9132H14.0435V32.2815H7.40733V32.9132ZM14.3594 32.5974V27.3342H13.7277V32.5974H14.3594ZM14.0435 27.0184H7.40733V27.6501H14.0435V27.0184ZM7.72318 27.3342V23.9017H7.09148V27.3342H7.72318ZM7.40733 24.2176H14.73V23.5859H7.40733V24.2176ZM15.0459 23.9017V18.4097H14.4142V23.9017H15.0459ZM14.73 18.0939H1V18.7256H14.73V18.0939ZM0.68415 18.4097V41.2931H1.31585V18.4097H0.68415ZM17.4676 41.6089H23.1884V40.9772H17.4676V41.6089ZM23.5043 41.2931V17.2655H22.8726V41.2931H23.5043ZM23.1884 16.9497H17.4676V17.5814H23.1884V16.9497ZM17.1517 17.2655V41.2931H17.7834V17.2655H17.1517ZM38.7727 27.2378C38.0466 26.3091 37.2667 25.6446 36.3723 25.2148C35.4782 24.7851 34.4892 24.5993 33.3587 24.5993V25.231C34.4186 25.231 35.3093 25.4048 36.0987 25.7841C36.8878 26.1634 37.5953 26.7575 38.275 27.6268L38.7727 27.2378ZM33.3587 24.5993C30.6396 24.5993 28.7074 25.7696 27.4648 27.4663C26.231 29.1511 25.6875 31.3381 25.6875 33.382H26.3192C26.3192 31.4376 26.8382 29.3911 27.9745 27.8396C29.1019 26.3 30.8474 25.231 33.3587 25.231V24.5993ZM25.6875 33.382C25.6875 36.1129 26.543 38.3177 27.9403 39.8433C29.3381 41.3693 31.2623 42.1973 33.3587 42.1973V41.5656C31.4342 41.5656 29.6808 40.8082 28.4061 39.4166C27.131 38.0245 26.3192 35.9796 26.3192 33.382H25.6875ZM33.3587 42.1973C35.7818 42.1973 37.6051 41.1352 38.7738 39.6228L38.2739 39.2366C37.2196 40.601 35.5777 41.5656 33.3587 41.5656V42.1973ZM38.208 39.4297V41.2931H38.8397V39.4297H38.208ZM38.5238 41.6089H44.0158V40.9772H38.5238V41.6089ZM44.3317 41.2931V25.5035H43.7V41.2931H44.3317ZM44.0158 25.1877H38.5238V25.8194H44.0158V25.1877ZM38.208 25.5035V27.4323H38.8397V25.5035H38.208ZM35.3202 36.8582C34.2389 36.8582 33.4814 36.4277 32.9865 35.7945C32.4838 35.1514 32.2362 34.2769 32.2362 33.382H31.6045C31.6045 34.3831 31.88 35.4047 32.4888 36.1835C33.1054 36.9724 34.0477 37.4899 35.3202 37.4899V36.8582ZM32.2362 33.382C32.2362 32.5195 32.4757 31.6528 32.9749 31.0094C33.4659 30.3765 34.2233 29.9384 35.3202 29.9384V29.3067C34.0307 29.3067 33.0881 29.833 32.4758 30.6221C31.8717 31.4008 31.6045 32.4138 31.6045 33.382H32.2362ZM35.3202 29.9384C36.2537 29.9384 37.0249 30.2752 37.5646 30.8586C38.1061 31.444 38.4368 32.3024 38.4368 33.382H39.0685C39.0685 32.1732 38.6964 31.1519 38.0283 30.4297C37.3585 29.7055 36.4135 29.3067 35.3202 29.3067V29.9384ZM38.4368 33.382C38.4368 34.4789 38.1054 35.3456 37.5639 35.9346C37.0244 36.5215 36.2536 36.8582 35.3202 36.8582V37.4899C36.4136 37.4899 37.359 37.091 38.029 36.3621C38.6971 35.6354 39.0685 34.606 39.0685 33.382H38.4368ZM47.668 41.6089H53.3888V40.9772H47.668V41.6089ZM53.7047 41.2931V34.5588H53.073V41.2931H53.7047ZM53.7047 34.5588C53.7047 34.3086 53.7219 33.2434 54.2262 32.25C54.4759 31.7582 54.8418 31.2904 55.38 30.9446C55.917 30.5995 56.6447 30.3634 57.6386 30.3634V29.7317C56.5403 29.7317 55.6906 29.9941 55.0385 30.4132C54.3876 30.8314 53.9526 31.3935 53.6629 31.964C53.0885 33.0956 53.073 34.2859 53.073 34.5588H53.7047ZM57.6386 30.3634C58.1746 30.3634 58.5172 30.3946 58.9831 30.5984L59.2363 30.0197C58.6561 29.7658 58.214 29.7317 57.6386 29.7317V30.3634ZM59.4255 30.3091V25.2747H58.7938V30.3091H59.4255ZM59.1616 24.9632C58.9554 24.9288 58.087 24.8281 57.6386 24.8281V25.4598C58.0402 25.4598 58.8716 25.5552 59.0577 25.5863L59.1616 24.9632ZM57.6386 24.8281C56.6304 24.8281 54.8339 25.1739 53.4169 26.7292L53.8838 27.1547C55.1474 25.7678 56.7508 25.4598 57.6386 25.4598V24.8281ZM53.4077 26.7397C53.2449 26.935 53.0742 27.1397 52.903 27.3795L53.417 27.7466C53.5727 27.5287 53.7288 27.3411 53.893 27.1441L53.4077 26.7397ZM53.4758 27.5631V25.5035H52.8441V27.5631H53.4758ZM53.16 25.1877H47.668V25.8194H53.16V25.1877ZM47.3521 25.5035V41.2931H47.9838V25.5035H47.3521ZM71.7828 36.4165C71.5335 37.4972 70.5648 38.1331 69.0831 38.1331V38.7648C70.7396 38.7648 72.0593 38.0278 72.3984 36.5586L71.7828 36.4165ZM69.0831 38.1331C68.0296 38.1331 67.2545 37.7231 66.7449 37.1006C66.2297 36.4713 65.9683 35.6022 65.9989 34.6672L65.3676 34.6465C65.3328 35.7057 65.6272 36.7326 66.2561 37.5008C66.8907 38.2759 67.8482 38.7648 69.0831 38.7648V38.1331ZM65.6833 34.9727H77.7134V34.341H65.6833V34.9727ZM78.029 34.6686C78.0957 32.8684 77.7982 30.3619 76.5017 28.2942C75.1912 26.2042 72.8813 24.5993 69.0177 24.5993V25.231C72.6729 25.231 74.7762 26.7316 75.9665 28.6298C77.1709 30.5504 77.4618 32.9148 77.3978 34.6452L78.029 34.6686ZM69.0177 24.5993C66.2517 24.5993 63.9927 25.4892 62.4244 27.049C60.8563 28.6085 60.0062 30.8104 60.0062 33.382H60.6379C60.6379 30.9519 61.4386 28.9203 62.8699 27.4969C64.3009 26.0737 66.3898 25.231 69.0177 25.231V24.5993ZM60.0062 33.382C60.0062 36.2224 61.0004 38.4361 62.6512 39.9372C64.2977 41.4344 66.569 42.1973 69.0831 42.1973V41.5656C66.6936 41.5656 64.5843 40.8412 63.0762 39.4698C61.5723 38.1023 60.6379 36.0662 60.6379 33.382H60.0062ZM69.0831 42.1973C70.4414 42.1973 75.9737 42.211 77.8817 36.5891L77.2835 36.386C75.5302 41.552 70.4708 41.5656 69.0831 41.5656V42.1973ZM77.5826 36.1717H72.0906V36.8034H77.5826V36.1717ZM66.1293 31.5695C66.22 29.998 67.2925 28.6635 69.0177 28.6635V28.0318C66.8854 28.0318 65.6042 29.7048 65.4987 31.5331L66.1293 31.5695ZM69.0177 28.6635C69.9592 28.6635 70.6491 29.0187 71.1192 29.5466C71.595 30.081 71.8605 30.8105 71.9061 31.5702L72.5366 31.5324C72.4842 30.6576 72.1775 29.7852 71.591 29.1265C70.9985 28.4611 70.1356 28.0318 69.0177 28.0318V28.6635ZM72.2214 31.2354H65.814V31.8671H72.2214V31.2354ZM90.5371 42.125C99.079 42.125 104.633 35.4863 104.633 29.1975H104.001C104.001 35.135 98.7327 41.4933 90.5371 41.4933V42.125ZM79.4177 29.1975C79.4177 32.2877 80.0317 35.5134 81.7374 37.9756C83.4558 40.4563 86.2576 42.125 90.5371 42.125V41.4933C86.4478 41.4933 83.8478 39.9127 82.2567 37.6159C80.6527 35.3006 80.0494 32.2205 80.0494 29.1975H79.4177ZM92.0252 35.4852C90.6161 35.4852 89.2792 34.9674 88.2939 33.936C87.3095 32.9057 86.6529 31.3379 86.6529 29.1975H86.0212C86.0212 31.4703 86.7212 33.2044 87.8372 34.3724C88.9522 35.5395 90.4594 36.1169 92.0252 36.1169V35.4852ZM86.6529 29.1975C86.6529 27.0571 87.3095 25.4894 88.2939 24.459C89.2792 23.4277 90.6161 22.9099 92.0252 22.9099V22.2782C90.4594 22.2782 88.9522 22.8555 87.8372 24.0226C86.7212 25.1907 86.0212 26.9247 86.0212 29.1975H86.6529ZM92.0252 22.9099C93.4342 22.9099 94.7711 23.4277 95.7564 24.459C96.7408 25.4894 97.3975 27.0571 97.3975 29.1975H98.0292C98.0292 26.9247 97.3291 25.1907 96.2132 24.0226C95.0982 22.8555 93.5909 22.2782 92.0252 22.2782V22.9099ZM97.3975 29.1975C97.3975 31.3379 96.7408 32.9057 95.7564 33.936C94.7711 34.9674 93.4342 35.4852 92.0252 35.4852V36.1169C93.5909 36.1169 95.0982 35.5395 96.2132 34.3724C97.3291 33.2044 98.0292 31.4703 98.0292 29.1975H97.3975ZM107.436 41.6089H113.614V40.9772H107.436V41.6089ZM113.93 41.2931V27.5631H113.298V41.2931H113.93ZM113.345 27.7288L121.812 41.4588L122.35 41.1273L113.883 27.3973L113.345 27.7288ZM122.081 41.6089H128.717V40.9772H122.081V41.6089ZM129.033 41.2931V18.4097H128.401V41.2931H129.033ZM128.717 18.0939H122.539V18.7256H128.717V18.0939ZM122.223 18.4097V31.9109H122.855V18.4097H122.223ZM122.807 31.7445L114.438 18.2433L113.901 18.5761L122.27 32.0773L122.807 31.7445ZM114.17 18.0939H107.436V18.7256H114.17V18.0939ZM107.12 18.4097V41.2931H107.752V18.4097H107.12ZM80.0397 29.2753C82.529 19.4733 82.955 13.5086 83.2713 9.87117L82.642 9.81644C82.3266 13.4436 81.904 19.3679 79.4274 29.1198L80.0397 29.2753ZM83.2713 9.87117C83.3094 9.43322 83.3922 9.19799 83.4727 9.08412C83.5088 9.03306 83.5395 9.01338 83.5613 9.00427C83.5841 8.99477 83.6194 8.98755 83.6778 8.99548C83.8067 9.01302 83.9941 9.09675 84.2467 9.27032C84.4925 9.43915 84.7686 9.6706 85.0714 9.94297C85.6624 10.4744 86.3696 11.1777 87.0585 11.7544C87.7468 12.3306 88.4918 12.8486 89.2103 12.9959L89.3371 12.377C88.7876 12.2644 88.1485 11.8431 87.464 11.2701C86.7801 10.6975 86.1257 10.0415 85.4939 9.47329C85.1853 9.19579 84.8848 8.94225 84.6044 8.74965C84.331 8.56179 84.0429 8.40764 83.7629 8.36955C83.6168 8.34967 83.4643 8.3602 83.3179 8.42134C83.1706 8.48286 83.0507 8.58672 82.9569 8.71943C82.7775 8.97309 82.6829 9.34632 82.642 9.81644L83.2713 9.87117ZM89.5618 12.8159C90.5753 10.5595 91.2799 8.96846 91.7242 7.25944C92.17 5.54442 92.3508 3.72361 92.341 0.998864L91.7093 1.00114C91.719 3.69679 91.5397 5.458 91.1128 7.10051C90.6842 8.74902 90.0034 10.291 88.9855 12.557L89.5618 12.8159ZM91.7219 1.08841L95.1295 12.7749L95.736 12.598L92.3284 0.911585L91.7219 1.08841ZM95.4327 12.6865C95.6871 12.8738 95.6871 12.8737 95.6871 12.8737C95.6872 12.8736 95.6873 12.8735 95.6874 12.8734C95.6876 12.8731 95.6879 12.8727 95.6883 12.8721C95.6891 12.871 95.6904 12.8693 95.6921 12.867C95.6955 12.8624 95.7005 12.8555 95.7072 12.8465C95.7206 12.8284 95.7405 12.8015 95.7665 12.7665C95.8184 12.6965 95.8946 12.5942 95.9914 12.4651C96.1849 12.2067 96.4608 11.8412 96.7898 11.4125C97.4482 10.5547 98.3175 9.44656 99.1646 8.44037C100.018 7.42675 100.829 6.54029 101.376 6.10733C101.512 5.99994 101.619 5.93092 101.696 5.89412C101.788 5.85048 101.779 5.88017 101.723 5.86125C101.627 5.82915 101.626 5.74782 101.633 5.79665C101.641 5.84846 101.638 5.95706 101.598 6.14705L102.217 6.276C102.262 6.06198 102.282 5.86766 102.259 5.70656C102.235 5.54249 102.15 5.3383 101.923 5.2623C101.736 5.19948 101.55 5.26425 101.425 5.3236C101.286 5.38978 101.136 5.49167 100.984 5.61204C100.38 6.09012 99.5309 7.02439 98.6813 8.03352C97.8255 9.05009 96.9497 10.1667 96.2887 11.0279C95.958 11.4588 95.6806 11.8264 95.4858 12.0863C95.3885 12.2162 95.3117 12.3193 95.2593 12.39C95.233 12.4253 95.2129 12.4525 95.1993 12.4709C95.1925 12.4802 95.1873 12.4872 95.1838 12.4919C95.182 12.4943 95.1807 12.4961 95.1798 12.4973C95.1794 12.4979 95.179 12.4983 95.1788 12.4987C95.1787 12.4988 95.1786 12.4989 95.1785 12.499C95.1785 12.4991 95.1784 12.4992 95.4327 12.6865ZM101.598 6.14705C101.251 7.81497 101.268 10.0973 101.661 13.6913C102.053 17.2909 102.825 22.2379 104.005 29.2499L104.628 29.1451C103.448 22.1317 102.679 17.2017 102.288 13.6228C101.897 10.0382 101.891 7.84021 102.217 6.276L101.598 6.14705ZM39.3629 46.7844C34.8903 47.3974 31.0784 47.5832 27.9798 47.4063C24.8761 47.2291 22.5107 46.6893 20.9151 45.8689L20.6262 46.4307C22.3337 47.3086 24.7991 47.8575 27.9438 48.037C31.0937 48.2168 34.9478 48.0272 39.4487 47.4103L39.3629 46.7844ZM20.9151 45.8689C20.6993 45.758 20.51 45.6767 20.349 45.6277C20.1994 45.5821 20.0294 45.5497 19.8756 45.587C19.7904 45.6077 19.6981 45.6529 19.6275 45.7395C19.557 45.8259 19.5315 45.9248 19.5281 46.0107C19.522 46.1661 19.5855 46.3208 19.6533 46.4473C19.7966 46.7149 20.0688 47.0525 20.4395 47.4305C20.8148 47.8132 21.3062 48.2524 21.9039 48.7227C24.2925 50.6022 28.424 53.0144 33.757 54.3194L33.9072 53.7058C28.6708 52.4245 24.62 50.0561 22.2945 48.2262C21.7137 47.7692 21.2433 47.348 20.8905 46.9882C20.5331 46.6238 20.3108 46.337 20.2101 46.1491C20.1559 46.0478 20.1601 46.0171 20.1594 46.0356C20.1587 46.053 20.1521 46.0957 20.117 46.1388C20.0817 46.182 20.0411 46.1969 20.0245 46.2009C20.0077 46.205 20.0416 46.1944 20.1648 46.2319C20.2766 46.266 20.4291 46.3293 20.6262 46.4307L20.9151 45.8689ZM33.8595 53.6979C24.4108 52.8744 17.8081 50.9962 14.3055 49.8845C13.8672 49.7455 13.4772 49.6183 13.1354 49.5064C12.7944 49.3948 12.4995 49.2978 12.2544 49.22C12.0106 49.1426 11.8083 49.0817 11.6536 49.0436C11.5767 49.0247 11.5039 49.0094 11.4397 49.0013C11.3884 48.9949 11.2945 48.9856 11.2026 49.0147C11.1504 49.0312 11.0688 49.0696 11.0109 49.1578C10.95 49.2508 10.9483 49.3482 10.9609 49.415C10.9813 49.5231 11.0481 49.6052 11.0793 49.6424C11.1588 49.7368 11.2895 49.8529 11.4499 49.9851C11.7788 50.2562 12.315 50.6612 13.0508 51.2203L13.433 50.7173C12.69 50.1527 12.1681 49.7584 11.8517 49.4976C11.6894 49.3638 11.6006 49.2807 11.5627 49.2357C11.5353 49.2032 11.5689 49.2305 11.5817 49.2978C11.5904 49.3442 11.5913 49.4248 11.5392 49.5042C11.4901 49.579 11.4237 49.6073 11.3931 49.617C11.3441 49.6325 11.3186 49.6228 11.3607 49.6281C11.3899 49.6318 11.4358 49.6405 11.5026 49.657C11.6353 49.6897 11.8204 49.745 12.0633 49.8221C12.3049 49.8987 12.5959 49.9945 12.9389 50.1068C13.2812 50.2188 13.6733 50.3467 14.1144 50.4867C17.6464 51.6076 24.2964 53.4986 33.8047 54.3272L33.8595 53.6979ZM17.9478 63.1271C22.1915 63.5986 26.9366 64.6602 31.6462 65.6975C36.3457 66.7326 41.0116 67.7439 45.0635 68.1002L45.1188 67.4709C41.1152 67.1188 36.4909 66.1177 31.782 65.0806C27.0832 64.0457 22.3018 62.9753 18.0176 62.4993L17.9478 63.1271ZM90.4434 41.5075C84.2013 43.4451 80.1889 44.3757 77.11 44.7768C74.0375 45.1772 71.8853 45.0518 69.3504 44.8644C64.2471 44.487 57.6889 43.8696 39.3562 46.7854L39.4554 47.4093C57.7347 44.502 64.2437 45.1202 69.3038 45.4944C71.8506 45.6827 74.0541 45.812 77.1916 45.4032C80.3226 44.9953 84.3744 44.0528 90.6307 42.1108L90.4434 41.5075ZM13.0508 51.2203C14.508 52.3276 15.4715 53.3559 16.3886 54.2863C17.3046 55.2155 18.1782 56.0509 19.4326 56.7174C21.934 58.0465 25.887 58.6717 34.6665 58.3097L34.6404 57.6786C25.8596 58.0406 22.0645 57.4005 19.729 56.1596C18.565 55.5411 17.7479 54.7653 16.8385 53.8428C15.9302 52.9214 14.9334 51.8574 13.433 50.7173L13.0508 51.2203ZM34.6534 58.31H35.9315V57.6783H34.6534V58.31ZM35.93 57.6783C35.4998 57.6803 35.0748 57.6803 34.6549 57.6783L34.652 58.31C35.0739 58.312 35.5008 58.312 35.9329 58.31L35.93 57.6783ZM34.6534 57.9942C34.6055 57.682 34.6054 57.682 34.6052 57.682C34.605 57.6821 34.6047 57.6821 34.6043 57.6822C34.6035 57.6823 34.6023 57.6825 34.6008 57.6827C34.5977 57.6832 34.5931 57.6839 34.587 57.6848C34.5749 57.6867 34.5568 57.6895 34.533 57.6932C34.4854 57.7006 34.4151 57.7115 34.3236 57.7258C34.1408 57.7545 33.874 57.7966 33.5374 57.8505C32.8643 57.9583 31.9123 58.1134 30.7966 58.3025C28.5659 58.6805 25.6782 59.1948 23.0559 59.7391C20.4456 60.2809 18.0631 60.8592 16.8658 61.3699C16.5687 61.4967 16.3131 61.6319 16.1455 61.7796C16.062 61.8533 15.9745 61.9522 15.9314 62.0796C15.8823 62.2249 15.9017 62.3764 15.9853 62.5056C16.0589 62.6194 16.17 62.6978 16.2775 62.7545C16.389 62.8134 16.5244 62.8632 16.6785 62.9068C16.9867 62.9941 17.4077 63.0671 17.9478 63.1271L18.0176 62.4993C17.4916 62.4408 17.1101 62.3725 16.8506 62.299C16.7208 62.2622 16.6309 62.2268 16.5723 62.1958C16.5097 62.1628 16.5057 62.147 16.5157 62.1625C16.5358 62.1935 16.5431 62.2426 16.5298 62.2819C16.5226 62.3034 16.5188 62.2927 16.5632 62.2535C16.6516 62.1756 16.8292 62.0723 17.1137 61.951C18.2427 61.4693 20.5609 60.9021 23.1843 60.3576C25.7956 59.8156 28.6746 59.3028 30.9022 58.9253C32.0156 58.7366 32.9657 58.5818 33.6373 58.4742C33.9731 58.4204 34.2393 58.3785 34.4214 58.3499C34.5125 58.3357 34.5826 58.3247 34.6298 58.3174C34.6535 58.3138 34.6714 58.311 34.6834 58.3091C34.6894 58.3082 34.6939 58.3075 34.6969 58.307C34.6984 58.3068 34.6996 58.3066 34.7003 58.3065C34.7007 58.3065 34.701 58.3064 34.7011 58.3064C34.7013 58.3064 34.7014 58.3064 34.6534 57.9942ZM45.0911 68.1014C70.8184 68.1014 86.208 57.4315 90.8398 41.8994L90.2344 41.7189C85.7098 56.8915 70.6482 67.4697 45.0911 67.4697V68.1014Z" fill="#2E2E31" mask="url(#path-1-outside-1_11_52)"/>
</svg>
